<?xml version="1.0" encoding="utf-8"?>
<!-- Generator: Adobe Illustrator 25.0.0, SVG Export Plug-In . SVG Version: 6.00 Build 0)  -->
<svg version="1.1" id="Layer_1" xmlns="http://www.w3.org/2000/svg" xmlns:xlink="http://www.w3.org/1999/xlink" x="0px" y="0px"
	 viewBox="0 0 262 35" style="enable-background:new 0 0 262 35;" xml:space="preserve">
<style type="text/css">
	.st0{enable-background:new    ;}
	.st1{fill:#8044F2;}
	.st2{fill:#FFFFFF;}
</style>
<g id="Component_10_1" transform="translate(1)">
	<g class="st0">
		<g>
			<path d="M12.4,28v-1.9c-0.8,0.8-1.7,1.4-2.7,1.7c-0.9,0.4-2,0.6-3.3,0.6c-1.9,0-3.3-0.4-4.3-1.1c-1-0.7-1.5-1.8-1.5-3.2
				c0-1.5,0.6-2.7,1.9-3.5c1.3-0.8,3.3-1.2,6.1-1.2l3.5-0.1v-0.5c0-0.8-0.3-1.4-0.9-1.8c-0.6-0.4-1.4-0.6-2.5-0.6
				c-2,0-3.2,0.6-3.6,1.7l-3.6-0.4c0.3-1.4,1-2.5,2.3-3.2c1.2-0.7,2.9-1,5.1-1c4.7,0,7,1.9,7,5.6v9H12.4z M12.2,21.7l-3.4,0.1
				c-1.5,0-2.5,0.2-3.2,0.6c-0.7,0.3-1,0.8-1,1.5c0,0.6,0.2,1,0.7,1.3c0.5,0.3,1.2,0.5,2.1,0.5c0.8,0,1.4-0.1,2.1-0.3
				c0.6-0.2,1.2-0.5,1.6-0.8c0.7-0.5,1-1.2,1-2.1V21.7z"/>
		</g>
		<g>
			<path d="M20.5,28V13.9h3.9v2.3c1.4-1.7,3.1-2.5,5.1-2.5c0.5,0,1,0,1.6,0.1l-0.5,3.3C30.1,17,29.6,17,29.1,17
				c-1.3,0-2.5,0.4-3.3,1.1c-0.8,0.7-1.2,1.5-1.2,2.5V28H20.5z"/>
		</g>
		<g>
			<path d="M44.7,27.7c-1.3,0.4-2.6,0.6-4,0.6c-1.8,0-3.1-0.4-3.9-1.2c-0.8-0.8-1.2-2.1-1.2-3.8v-6.3h-2.7v-3h2.7v-3.8h4v3.8h4.6v3
				h-4.6v6.2c0,0.7,0.2,1.2,0.5,1.6c0.3,0.3,0.9,0.5,1.6,0.5c0.8,0,1.6-0.1,2.4-0.4L44.7,27.7z"/>
		</g>
		<g>
			<path d="M57.2,28v-4H46.4V21L57,9.3h4V21h3L63.6,24H61v4H57.2z M57.2,13.5L50.4,21h6.8V13.5z"/>
		</g>
		<g>
			<path d="M77.9,28v-1.9c-0.8,0.8-1.7,1.4-2.7,1.7c-0.9,0.4-2,0.6-3.3,0.6c-1.9,0-3.3-0.4-4.3-1.1c-1-0.7-1.5-1.8-1.5-3.2
				c0-1.5,0.6-2.7,1.9-3.5c1.3-0.8,3.3-1.2,6.1-1.2l3.5-0.1v-0.5c0-0.8-0.3-1.4-0.9-1.8c-0.6-0.4-1.4-0.6-2.5-0.6
				c-2,0-3.2,0.6-3.6,1.7l-3.6-0.4c0.3-1.4,1-2.5,2.3-3.2c1.2-0.7,2.9-1,5.1-1c4.7,0,7,1.9,7,5.6v9H77.9z M77.8,21.7l-3.4,0.1
				c-1.5,0-2.5,0.2-3.2,0.6c-0.7,0.3-1,0.8-1,1.5c0,0.6,0.2,1,0.7,1.3c0.5,0.3,1.2,0.5,2.1,0.5c0.8,0,1.4-0.1,2.1-0.3
				c0.6-0.2,1.2-0.5,1.6-0.8c0.7-0.5,1-1.2,1-2.1V21.7z"/>
		</g>
		<g>
			<path d="M97.2,28v-2.3c-1.5,1.8-3.4,2.7-5.8,2.7c-1.7,0-3.1-0.5-4.1-1.4c-1-0.9-1.4-2.2-1.4-3.9v-9.2h4v8.5c0,1,0.2,1.7,0.7,2.2
				c0.5,0.5,1.2,0.7,2.2,0.7c1.2,0,2.2-0.4,3.1-1.2c0.4-0.3,0.6-0.7,0.9-1.1c0.2-0.4,0.3-0.9,0.3-1.3v-7.7h4V28H97.2z"/>
		</g>
		<g>
			<path d="M120.8,22.9c-0.3,1.8-1.1,3.1-2.4,4.1c-1.3,1-3.1,1.4-5.3,1.4c-2.6,0-4.6-0.6-6-1.9c-1.4-1.3-2.1-3.1-2.1-5.4
				c0-1.5,0.3-2.8,1-4c0.6-1.1,1.6-2,2.8-2.7c1.2-0.6,2.7-1,4.4-1c2,0,3.7,0.4,5,1.3c1.3,0.9,2.1,2.1,2.4,3.7l-4.1,0.5
				c-0.2-0.8-0.6-1.4-1.2-1.8s-1.3-0.6-2.2-0.6c-1.3,0-2.2,0.4-3,1.2c-0.7,0.8-1.1,1.9-1.1,3.2c0,1.4,0.4,2.5,1.1,3.3
				c0.7,0.8,1.7,1.1,3,1.1c1,0,1.8-0.2,2.4-0.6c0.6-0.4,1-1,1.2-1.8H120.8z"/>
		</g>
		<g>
			<path d="M134.6,27.7c-1.3,0.4-2.6,0.6-4,0.6c-1.8,0-3.1-0.4-3.9-1.2c-0.8-0.8-1.2-2.1-1.2-3.8v-6.3h-2.7v-3h2.7v-3.8h4v3.8h4.6v3
				h-4.6v6.2c0,0.7,0.2,1.2,0.5,1.6c0.3,0.3,0.9,0.5,1.6,0.5c0.8,0,1.6-0.1,2.4-0.4L134.6,27.7z"/>
		</g>
		<g>
			<path d="M137.6,12V8.6h4.1V12H137.6z M137.7,28V13.9h4V28H137.7z"/>
		</g>
		<g>
			<path d="M162.5,20.9c0,2.3-0.8,4.1-2.3,5.5c-1.5,1.4-3.6,2-6.3,2s-4.7-0.7-6.2-2c-1.5-1.3-2.2-3.1-2.2-5.5c0-1.5,0.3-2.8,1-3.9
				c0.7-1.1,1.7-2,3-2.6c1.3-0.6,2.8-0.9,4.6-0.9c2.6,0,4.7,0.7,6.2,2C161.8,16.7,162.5,18.6,162.5,20.9z M158.3,21
				c0-1.4-0.4-2.5-1.1-3.3c-0.7-0.8-1.8-1.1-3.2-1.1c-1.4,0-2.4,0.4-3.2,1.2c-0.8,0.8-1.1,1.9-1.1,3.2c0,1.4,0.4,2.5,1.1,3.3
				c0.7,0.8,1.8,1.1,3.2,1.1s2.4-0.4,3.2-1.1C158,23.4,158.3,22.4,158.3,21z"/>
		</g>
		<g>
			<path d="M177.8,28v-8.4c0-1-0.2-1.8-0.7-2.3s-1.3-0.7-2.4-0.7c-0.6,0-1.1,0.1-1.7,0.3c-0.6,0.2-1.1,0.5-1.5,0.9
				c-0.8,0.7-1.1,1.5-1.1,2.4V28h-4V13.9h3.9v2.3c1.5-1.8,3.5-2.7,5.8-2.7c1.8,0,3.2,0.5,4.2,1.4c1,0.9,1.5,2.3,1.5,4V28H177.8z"/>
		</g>
	</g>
	<g id="Component_9_1" transform="translate(189.663 2.601)">
		<g id="Path_258">
			<path class="st1" d="M16.1,0h39.2c8.9,0,16,7.2,16,16s-7.2,16-16,16c0,0,0,0,0,0H16.1c-8.9,0-16-7.2-16-16S7.2,0,16.1,0
				C16.1,0,16.1,0,16.1,0z"/>
		</g>
		<g class="st0">
			<path class="st2" d="M18,23.4c0.6-1.7,1.3-3.4,2.1-5.1c0.8-1.6,1.7-3.1,2.6-4.4h-6.8V11h10.8v2.6c-1.1,1.5-2,3.1-2.8,4.6
				s-1.5,3.3-2.2,5.3H18z"/>
			<path class="st2" d="M33.8,23.4v-8.5l-2.6,1.7l-1.6-2.4l4.8-3.1h3v12.4H33.8z"/>
			<path class="st2" d="M43.9,23.4c0.6-1.7,1.3-3.4,2.1-5.1c0.8-1.6,1.7-3.1,2.6-4.4h-6.8V11h10.8v2.6c-1.1,1.5-2,3.1-2.8,4.6
				s-1.5,3.3-2.2,5.3H43.9z"/>
		</g>
	</g>
</g>
</svg>
