<svg xmlns="http://www.w3.org/2000/svg" width="401.678" height="485.569" viewBox="0 0 401.678 485.569">
  <g id="Layer_10" data-name="Layer 10" transform="translate(0 0)">
    <rect id="Rectangle_31" data-name="Rectangle 31" width="337.742" height="364.336" transform="translate(19.945 69.234)" fill="#76f8b7"/>
    <rect id="Rectangle_32" data-name="Rectangle 32" width="377.633" height="19.945" transform="translate(0 413.624)" fill="#76f8b7"/>
    <rect id="Rectangle_33" data-name="Rectangle 33" width="297.851" height="324.445" transform="translate(39.891 89.179)" fill="#f5ebdd"/>
    <rect id="Rectangle_34" data-name="Rectangle 34" width="327.104" height="19.945" transform="translate(25.264 208.187)" fill="#76f8b7"/>
    <path id="Path_157" data-name="Path 157" d="M290.191,694.966s-15.059.831-26.288-5.485c-10.638-5.984-12.353-15.358-8.643-33.907,0,0-6.648-3.989-5.984-7.978.432-2.626,7.978-5.319,7.978-5.319.944-5.066,2.141-12.725,4.082-20.557a80.958,80.958,0,0,0,14.74,1.516c14.839,16.694,31.042,17.712,31.042,17.712a25.385,25.385,0,0,1,9.261-8.337l22.133,8.823a21.215,21.215,0,0,1,.519,2.174c3.078,17.452-18.616,23.934-18.616,23.934,4.375,16.714,18.616,23.27,29.306,25.843l-.9,8.3H289.074Z" transform="translate(-8.602 -456.695)" fill="#603f30"/>
    <path id="Path_158" data-name="Path 158" d="M499.182,828.581C447.324,813.29,444,690.958,444,690.958l27.053-34.811s-5.113-25.025.206-29.679c6.422-5.618,14.514,11.967,23.27,33.907,9.2,23.05,26.388,90.845,27.717,95.5,0,0,12.9-6.064,28.183-13.111l2.168,7.127,19.719,66.478C550.695,825.217,520.052,834.737,499.182,828.581Z" transform="translate(-360.688 -457.932)" fill="#603f30"/>
    <path id="Path_159" data-name="Path 159" d="M241.84,677.479s21.694-6.482,18.616-23.935a21.2,21.2,0,0,0-.519-2.174l16.123,6.4c0,.459-.073.891-.106,1.33l-4.807,44.219C260.436,700.748,246.215,694.193,241.84,677.479Z" transform="translate(69.973 -466.632)"/>
    <path id="Path_160" data-name="Path 160" d="M345.161,635.96s-16.2-1.017-31.042-17.712a80.964,80.964,0,0,1-14.74-1.516c.824-3.324,1.788-6.682,2.932-9.893l52.111,20.783A25.384,25.384,0,0,0,345.161,635.96Z" transform="translate(-46.645 -451.708)"/>
    <path id="Path_161" data-name="Path 161" d="M288.223,645.891l-22.133-8.823C275.232,632.428,285.264,635.812,288.223,645.891Z" transform="translate(41.687 -461.153)" fill="#30242a"/>
    <path id="Path_162" data-name="Path 162" d="M293.3,612.9l-52.111-20.783a46.731,46.731,0,0,1,6.948-13.43c11.129-13.915,38.455-24.014,62.575-6.389,23.223,16.974,21.807,43.946,20.843,55.847l-16.122-6.429C312.47,611.64,302.438,608.256,293.3,612.9Z" transform="translate(14.481 -436.981)" fill="#30242a"/>
    <path id="Union_2" data-name="Union 2" d="M-7074.383-1461.189l19.167-43.88h-90.151l-2.308,19.945-1.441,12.426c-.666.347-6.523,3.5-15.4,7.521-2.951,1.329-6.236,2.765-9.766,4.214l-.48.193-19.732-66.485-2.167-7.127.047-.02c7.553-3.484,15.684-7.234,23.124-10.557,6.522-2.939,12.519-5.6,17.126-7.553a153.41,153.41,0,0,1,17.2-6.13c18.31-5.339,31.54-5.6,31.54-5.6l1.662-9.973h59.777l-.937,8.642a100.978,100.978,0,0,1,17.671,1.51l-8.364,19.1h-102.931l-2.313,19.945h96.555l17.054-39.047c12.332,2.115,28.15,7.134,37.286,19.1a36.282,36.282,0,0,1,7.313,20.371c1.508,24.206-10.353,58.267-24.76,86.961Z" transform="translate(7386.402 1819.205)" fill="#8044f2"/>
    <path id="Path_165" data-name="Path 165" d="M363.191,876l-8.71,19.945h-77.2l.791-7.553-.066.033L279.447,876Z" transform="translate(-40.721 -541.918)" fill="#8044f2"/>
    <path id="Path_166" data-name="Path 166" d="M371.725,946.4s-43.328,2.885-66.485,6.648L307.022,936h69.4Z" transform="translate(-72.544 -562.027)" fill="#8044f2"/>
    <path id="Path_167" data-name="Path 167" d="M237.97,805.945,240.284,786H343.235l-8.71,19.945Z" transform="translate(5.37 -511.754)" fill="#ffb7d5"/>
    <path id="Path_168" data-name="Path 168" d="M356.63,846l-8.716,19.945H264.17L266.477,846Z" transform="translate(-25.444 -531.863)" fill="#ffb7d5"/>
    <path id="Path_169" data-name="Path 169" d="M368.945,908.42l-7.932,17.526h-69.4L293.691,906h76.384Z" transform="translate(-57.132 -551.972)" fill="#ffb7d5"/>
    <path id="Path_171" data-name="Path 171" d="M366.473,925.945,374.4,908.42l1.13-2.42h.818l-1.742,3.989L439.4,933.551c-10.917,21.74-23.27,40.4-32.418,49.332C375.069,1014.131,291.5,994.664,291.5,994.664a59.666,59.666,0,0,1-22.139,10.159c-22.6,44.545-35.037,29.067-35.037,29.067s-7.978,8.643-13.962-.665c-11.967.665-11.3-6.649-.665-31.913-11.967,14.627-23.881,14.859-24.134,10.824-.665-10.638,29.253-45.875,56.711-57.363,16.515-6.908,43.016-11.781,43.016-11.781h0c23.157-3.73,66.485-6.649,66.485-6.649Z" transform="translate(-62.592 -551.972)" fill="#603f30"/>
    <line id="Line_4" data-name="Line 4" x1="1.33" y2="11.728" transform="translate(291.402 245.897)" fill="none" stroke="#30242a" stroke-linecap="round" stroke-linejoin="round" stroke-width="4"/>
    <line id="Line_5" data-name="Line 5" x1="1.33" y2="11.728" transform="translate(302.704 245.897)" fill="none" stroke="#30242a" stroke-linecap="round" stroke-linejoin="round" stroke-width="4"/>
    <path id="Path_173" data-name="Path 173" d="M320,732.324A35.187,35.187,0,0,0,332.519,729" transform="translate(-38.451 -492.65)" fill="none" stroke="#a15842" stroke-linecap="round" stroke-miterlimit="10" stroke-width="4"/>
    <path id="Path_174" data-name="Path 174" d="M515.94,1040.541c2.56-5.678,5.492-11.834,8.131-16.5" transform="translate(-360.273 -591.534)" fill="none" stroke="#a15842" stroke-linecap="round" stroke-miterlimit="10" stroke-width="4"/>
    <path id="Path_175" data-name="Path 175" d="M515.776,1034c-8.3,14.587-14.72,31.008-18.616,42.092" transform="translate(-339.492 -594.872)" fill="none" stroke="#a15842" stroke-linecap="round" stroke-miterlimit="10" stroke-width="4"/>
    <path id="Path_176" data-name="Path 176" d="M492.691,1047c-5.984,10.977-12.785,24.22-17.692,34.087" transform="translate(-301.674 -599.229)" fill="none" stroke="#a15842" stroke-linecap="round" stroke-miterlimit="10" stroke-width="4"/>
    <line id="Line_6" data-name="Line 6" y1="24.779" x2="2.4" transform="translate(236.486 321.45)" fill="none" stroke="#30242a" stroke-linecap="round" stroke-linejoin="round" stroke-width="4"/>
    <line id="Line_7" data-name="Line 7" x2="4.481" y2="17.552" transform="translate(163.06 297.675)" fill="none" stroke="#a15842" stroke-linecap="round" stroke-miterlimit="10" stroke-width="4"/>
    <line id="Line_8" data-name="Line 8" x1="8.251" transform="translate(331.299 252.306)" fill="none" stroke="#30242a" stroke-linecap="round" stroke-linejoin="round" stroke-width="4"/>
    <line id="Line_9" data-name="Line 9" x1="1.25" y2="7.486" transform="translate(276.111 255.032)" fill="none" stroke="#30242a" stroke-linecap="round" stroke-linejoin="round" stroke-width="4"/>
    <line id="Line_10" data-name="Line 10" x2="83.771" y2="31.913" transform="translate(263.08 140.126)" fill="none" stroke="#8044f2" stroke-linecap="round" stroke-miterlimit="10" stroke-width="4"/>
    <line id="Line_11" data-name="Line 11" y1="1.084" x2="18.15" transform="translate(300.311 381.712)" fill="none" stroke="#a15842" stroke-linecap="round" stroke-miterlimit="10" stroke-width="4"/>
    <line id="Line_12" data-name="Line 12" y1="55.362" x2="25.005" transform="translate(299.646 328.099)" fill="none" stroke="#30242a" stroke-linecap="round" stroke-linejoin="round" stroke-width="4"/>
    <path id="Path_177" data-name="Path 177" d="M590,662.9c1.529,6.03,3.67,13.962,5.811,20.012a47.752,47.752,0,0,0,.665,43.215" transform="translate(-481.916 -470.497)" fill="none" stroke="#a15842" stroke-linecap="round" stroke-miterlimit="10" stroke-width="4"/>
    <line id="Line_13" data-name="Line 13" y1="7.313" x2="9.973" transform="translate(307.365 189.146)" fill="none" stroke="#a15842" stroke-linecap="round" stroke-miterlimit="10" stroke-width="4"/>
    <ellipse id="Ellipse_5" data-name="Ellipse 5" cx="2.759" cy="2.759" rx="2.759" ry="2.759" transform="translate(257.615 182.736)" fill="#30242a"/>
    <line id="Line_14" data-name="Line 14" x1="126.686" y1="48.035" transform="translate(237.496 149.261)" fill="none" stroke="#30242a" stroke-linecap="round" stroke-linejoin="round" stroke-width="4"/>
    <path id="Path_181" data-name="Path 181" d="M374.635,680.77c-.665,1.33-4.368,4.388-7.945,2.307" transform="translate(-111.609 -476.486)" fill="none" stroke="#a15842" stroke-linecap="round" stroke-miterlimit="10" stroke-width="4"/>
    <path id="Path_182" data-name="Path 182" d="M588.409,732.312c1.609-1.622,2.846-4.361,2.513-8.683,0,0,5.984,3.324,9.973,0a10.448,10.448,0,0,0,3.324-10.638s5.984,1.995,8.643-2.659c2.885-5.046-.665-11.967-.665-11.967s4.78.665,5.983-3.989c1.529-5.891-1.669-11.249-5.033-15.125" transform="translate(-502.956 -475.976)" fill="none" stroke="#a15842" stroke-linecap="round" stroke-miterlimit="10" stroke-width="8"/>
    <rect id="Rectangle_35" data-name="Rectangle 35" width="125.836" height="97.932" rx="18.76" transform="translate(118.569 0) rotate(20.8)" fill="#30242a"/>
    <rect id="Rectangle_36" data-name="Rectangle 36" width="10.638" height="204.308" rx="5.319" transform="translate(139.203 106.628) rotate(20.8)" fill="#30242a"/>
    <path id="Path_183" data-name="Path 183" d="M487.652,443.606a12.552,12.552,0,0,1,16.475,6.569l1.449,3.377,3.377-1.456a12.538,12.538,0,1,1,9.92,23.031l-3.378,1.455L492.472,486.5l-9.926-23.03L481.1,460.1a12.532,12.532,0,0,1,6.555-16.495Z" transform="translate(-338.807 -396.658)" fill="#ffb7d5"/>
    <path id="Path_184" data-name="Path 184" d="M615.1,660.426c-6.19,3.717-4.86,10.917-4.86,10.917s-12.453-1.709-12.087,11.023c0,0-9.926,4.561-5.372,14.487,0,0-6.828,1.782-3.417,12.692,3.324,10.638,10.126,17.346,14.627,17.951,2.38.319,7.978-1.995,7.313-10.638,0,0,5.984,3.324,9.973,0A10.448,10.448,0,0,0,624.6,706.22s5.984,1.995,8.643-2.66c2.885-5.046-.665-11.967-.665-11.967s4.78.665,5.984-3.989c2.553-9.82-8.038-18.157-10.638-20.61l1.995-5.319S621.274,656.716,615.1,660.426Z" transform="translate(-523.336 -469.206)" fill="#603f30"/>
    <path id="Path_185" data-name="Path 185" d="M619.914,700.3c-7.546-4.441-18.981-12.632-25.4-22.432" transform="translate(-508.353 -475.514)" fill="none" stroke="#a15842" stroke-linecap="round" stroke-miterlimit="10" stroke-width="4"/>
    <path id="Path_186" data-name="Path 186" d="M636.132,719.986A99.886,99.886,0,0,1,607.69,695.3" transform="translate(-533.334 -481.356)" fill="none" stroke="#a15842" stroke-linecap="round" stroke-miterlimit="10" stroke-width="4"/>
    <path id="Path_187" data-name="Path 187" d="M649.412,737.333c-5.319-3.989-12.632-11.3-18.8-19.713" transform="translate(-561.852 -488.836)" fill="none" stroke="#a15842" stroke-linecap="round" stroke-miterlimit="10" stroke-width="4"/>
  </g>
</svg>
