<svg xmlns="http://www.w3.org/2000/svg" xmlns:xlink="http://www.w3.org/1999/xlink" width="690.666" height="481.7" viewBox="0 0 690.666 481.7">
  <defs>
    <clipPath id="clip-path">
      <rect id="Rectangle_20" data-name="Rectangle 20" width="690.666" height="481.7" fill="none"/>
    </clipPath>
  </defs>
  <g id="Artwork_36" data-name="Artwork 36" transform="translate(345.333 240.85)">
    <g id="Group_336" data-name="Group 336" transform="translate(-345.333 -240.85)" clip-path="url(#clip-path)">
      <path id="Path_18" data-name="Path 18" d="M171.191,344.3a25,25,0,0,0-50.008,0H125.9a20.283,20.283,0,1,1,40.566,0ZM91.459,324.191a25.179,25.179,0,0,0,12.764,3.5,24.654,24.654,0,1,0-19.059-40.566l1.224,6.644A20.283,20.283,0,0,1,104.4,283.1a19.933,19.933,0,1,1,0,39.866,20.458,20.458,0,0,1-13.988-5.42Zm112.78-54.029a25.179,25.179,0,0,0-16.611-6.295,24.654,24.654,0,0,0,0,49.308,25.179,25.179,0,0,0,9.967-1.923l.874-5.77a20.459,20.459,0,0,1-10.841,3.147,19.933,19.933,0,0,1,0-39.866,20.458,20.458,0,0,1,15.737,7.344Zm-122.4-2.8A24.654,24.654,0,0,0,78,218.405l-4.546.35.874,4.721,3.672-.35a19.933,19.933,0,0,1,2.972,39.691Zm133.587-71.515h-2.973a24.654,24.654,0,0,0-3.847,48.959l.7-4.721a19.933,19.933,0,0,1,3.147-39.691l3.322.35.35-1.749-.7-3.147m-105.96-42.314-5.42,2.1a19.933,19.933,0,0,1,10.491,17.485,20.283,20.283,0,0,1-39.517,5.945,38.293,38.293,0,0,0-2.623,5.77,25,25,0,0,0,47.035-11.715,24.479,24.479,0,0,0-9.792-19.583m59.45-16.436a24.654,24.654,0,1,0,25.528,24.829l-4.9-3.147a19.759,19.759,0,0,1,.175,3.147A20.283,20.283,0,1,1,167.17,142.17Zm-24.479-30.424a19.58,19.58,0,0,1,.525,4.546,20.108,20.108,0,0,1-20.283,19.933,20.457,20.457,0,0,1-11.191-3.322l2.623,6.47a25.179,25.179,0,0,0,8.568,1.4,24.829,24.829,0,0,0,25-24.654,24.485,24.485,0,0,0-.35-4.546Z" transform="translate(54.193 79.718)" fill="#bbb" fill-rule="evenodd"/>
      <path id="Path_19" data-name="Path 19" d="M123.986,169.684a19.583,19.583,0,1,0,0,39.167,2.361,2.361,0,1,1,0,4.721,24.3,24.3,0,1,1,0-48.434,2.361,2.361,0,0,1,0,4.721" transform="translate(73.072 123.543)" fill="#bbb" fill-rule="evenodd"/>
      <path id="Path_20" data-name="Path 20" d="M113.711,208.925a19.583,19.583,0,1,0,0-39.167,2.361,2.361,0,0,1,0-4.721,24.3,24.3,0,1,1,0,48.434,2.361,2.361,0,1,1,0-4.721" transform="translate(83.348 123.468)" fill="#bbb" fill-rule="evenodd"/>
      <path id="Path_21" data-name="Path 21" d="M161.176,149.275l-.525-2.448a122.227,122.227,0,0,0-3.322-12.065c-2.1-6.295-2.273-6.47-4.022-11.016a53.857,53.857,0,0,0-3.322-7.344C135.472,86.328,108.895,64.472,77.6,53.456a248.638,248.638,0,0,0-25.528-6.644,11.54,11.54,0,0,0-3.847-.175,2.8,2.8,0,0,0-1.4.7,2.448,2.448,0,0,0-.525,2.8,10.141,10.141,0,0,0,1.923,2.448l4.371,4.2c6.819,7.169,12.589,15.037,19.933,21.507A103.688,103.688,0,0,0,95.431,93.5c9.617,4.721,28.326,11.191,41.965,20.982a45.462,45.462,0,0,1,11.715,11.365,95.07,95.07,0,0,1,3.672,10.141c0,.175,2.623,8.917,3.322,12.065l.35,1.4Z" transform="translate(34.484 34.844)" fill="#76f8b7" fill-rule="evenodd"/>
      <path id="Path_22" data-name="Path 22" d="M149.056,125.465c1.4,3.322-11.54-33.921-53.68-47.21C69.5,70.211,43.1,45.557,46.767,47.131c.7.35-1.049,1.574-.525,2.8a10.142,10.142,0,0,0,1.923,2.448l4.371,4.2C59.357,63.567,65.127,71.435,72.471,77.9A103.688,103.688,0,0,0,95.376,93.117c9.617,4.721,28.326,11.191,41.965,20.982a45.462,45.462,0,0,1,11.715,11.365" transform="translate(34.539 35.225)" fill="#4c8466" fill-rule="evenodd"/>
      <path id="Path_23" data-name="Path 23" d="M124.678,110.783c5.77-2.448,28.676-5.945,35.32-4.9,1.224.175,2.1-1.574,1.749-2.8a2.623,2.623,0,0,0-1.4-1.748,10.141,10.141,0,0,0-4.2-.525c-7.868.175-27.8,3.322-33.222,5.77-15.387,6.295-22.906,19.234-29.375,33.572l-.35.35c-4.9,6.994-12.939,11.54-21.507,15.387s-18.709,6.994-26.053,11.016a84.977,84.977,0,0,0-15.212,10.316,53.854,53.854,0,0,0-14.338,18.185c-1.4,2.973-1.049,5.071,0,6.47a5.42,5.42,0,0,0,3.147,1.923,16.087,16.087,0,0,0,5.77,0c13.289-1.749,40.216-14.338,44.412-17.66,14.338-11.191,20.807-27.1,27.452-42.139s12.764-27.1,27.8-33.4m32.522-6.644Z" transform="translate(11.357 75.435)" fill="#76f8b7" fill-rule="evenodd"/>
      <path id="Path_24" data-name="Path 24" d="M95.134,125.675C59.814,186.873,39.182,148.58,17.5,185.3a29.2,29.2,0,0,0,5.77,0A94.6,94.6,0,0,0,42.5,179.7c11.365-4.371,22.731-9.967,25.354-12.065C82.2,156.449,95.309,125.5,95.309,125.5" transform="translate(13.099 93.939)" fill="#4c8466" fill-rule="evenodd"/>
      <path id="Path_25" data-name="Path 25" d="M133.9,126.063l1.923-4.2a72.563,72.563,0,0,1,8.743-13.988l.35-.35c10.316-12.24,22.206-12.764,34.621-10.316s27.1,8.568,40.216,9.092c2.972.175,21.507-2.273,28.851-5.071a9.793,9.793,0,0,0,3.5-2.1,3.5,3.5,0,0,0,.874-1.923,2.448,2.448,0,0,0-.35-1.4A3.846,3.846,0,0,0,251.4,94.59c-5.77-3.672-13.114-6.12-19.583-8.743-22.906-9.267-46.511-12.764-69.067.175A77.285,77.285,0,0,0,131.1,119.943c-1.049,2.1-1.923,4.2-2.8,6.295Z" transform="translate(96.035 58.056)" fill="#76f8b7" fill-rule="evenodd"/>
      <path id="Path_26" data-name="Path 26" d="M236.626,95.368c-11.89.175-18.709,2.273-33.572-2.8-34.446-11.715-47.21-15.387-53.854,0a99.839,99.839,0,0,1,14.862.874c13.289,2.623,27.1,8.568,40.216,9.092,2.972.175,21.507-2.273,28.851-5.071a16.959,16.959,0,0,0,3.5-2.1" transform="translate(111.679 61.649)" fill="#4c8466" fill-rule="evenodd"/>
      <path id="Path_27" data-name="Path 27" d="M158.045,115.813c0-.525-1.049-1.049-1.574-1.574A108.581,108.581,0,0,0,135.838,101.3l-6.12-2.8a103.512,103.512,0,0,0-56.477-5.6,139.01,139.01,0,0,0-22.906,5.945,59.974,59.974,0,0,0-12.764,5.77,15.038,15.038,0,0,0-3.5,2.623,2.972,2.972,0,0,0-.175,4.022,16.961,16.961,0,0,0,9.617,5.071,73.963,73.963,0,0,0,15.562,1.4,116.452,116.452,0,0,0,29.725-4.2c6.12-1.574,17.31-6.295,27.627-8.917a42.138,42.138,0,0,1,11.715-1.574,101.065,101.065,0,0,1,22.381,12.589Z" transform="translate(24.851 68.306)" fill="#76f8b7" fill-rule="evenodd"/>
      <path id="Path_28" data-name="Path 28" d="M128.208,100.211C99.533,81.5,76.452,123.117,33.963,108.255c-2.972-1.049,5.6,4.2,9.617,5.071a73.961,73.961,0,0,0,15.562,1.4,116.452,116.452,0,0,0,29.55-4.2c6.12-1.574,17.31-6.295,27.627-8.917a42.138,42.138,0,0,1,11.715-1.574" transform="translate(24.962 71.318)" fill="#4c8466" fill-rule="evenodd"/>
      <path id="Path_29" data-name="Path 29" d="M133.285,179.41,150.246,8.929a2.375,2.375,0,0,0-4.721-.525L128.564,179.41Zm-12.764,0V40.4a2.361,2.361,0,1,0-4.721,0V179.41Z" transform="translate(86.679 4.709)" fill="#76f8b7" fill-rule="evenodd"/>
      <path id="Path_30" data-name="Path 30" d="M138.741,0a10.841,10.841,0,1,0,10.841,10.841A10.841,10.841,0,0,0,138.741,0" transform="translate(95.736)" fill="#d5d5d5" fill-rule="evenodd"/>
      <path id="Path_31" data-name="Path 31" d="M121.485,14.3a10.841,10.841,0,1,0,7.629,3.482,10.841,10.841,0,0,0-7.629-3.482" transform="translate(82.567 10.702)" fill="#d5d5d5" fill-rule="evenodd"/>
      <path id="Path_32" data-name="Path 32" d="M109.122,109.922h45.811a2.361,2.361,0,0,0,0-4.721H105.625a2.273,2.273,0,0,0-2.1,3.322l18.185,42.314h-1.4A50.008,50.008,0,0,0,71,209.238L94.259,345.622a2.273,2.273,0,0,0,2.273,1.923h58.4a2.361,2.361,0,0,0,0-4.721H98.456L75.375,208.363a45.287,45.287,0,0,1,44.762-52.805h5.071a2.273,2.273,0,0,0,2.1-3.322Z" transform="translate(52.617 78.744)" fill="#bbb" fill-rule="evenodd"/>
      <path id="Path_33" data-name="Path 33" d="M141.707,150.837l18.185-42.314a2.273,2.273,0,0,0-2.1-3.322H108.311a2.361,2.361,0,0,0,0,4.721h45.811l-18.185,42.314a2.273,2.273,0,0,0,2.1,3.322h5.071a45.287,45.287,0,0,1,44.587,52.805L164.788,342.825H108.311a2.361,2.361,0,0,0,0,4.721h58.4a2.273,2.273,0,0,0,2.273-1.923L192.24,209.238a50.008,50.008,0,0,0-49.308-58.4Z" transform="translate(79.306 78.744)" fill="#bbb" fill-rule="evenodd"/>
      <path id="Path_34" data-name="Path 34" d="M624.222,93l12.24,11.54L595.9,401.439,336.94,412.105,0,401.439V363.671l336.94,8.043,239.373-8.043Z" transform="translate(0 69.612)" fill="#412791" fill-rule="evenodd"/>
      <path id="Path_35" data-name="Path 35" d="M624.222,93,246.367,120.277l-59.8,224.86L0,363.671l336.94,10.316,239.373-10.316Z" transform="translate(0 69.612)" fill="#8044f2" fill-rule="evenodd"/>
      <path id="Path_36" data-name="Path 36" d="M186.218,345.312l334.667,18.01L336.94,371.365,0,363.322v5.77l334.492,7.868v35.145h4.721v-35.32l237.1-10.316a2.8,2.8,0,0,0,2.623-2.448L624.222,93l-5.6.35L573.865,360.874h-2.972L187.966,340.416l-1.224,4.546h-.35" transform="translate(0 69.612)" fill="#fff" fill-rule="evenodd"/>
      <path id="Path_37" data-name="Path 37" d="M515.389,104,471.676,336.9,117.6,322.74l53.68-200.031Z" transform="translate(88.026 77.846)" fill="#fff" fill-rule="evenodd"/>
      <path id="Path_38" data-name="Path 38" d="M311.452,276.156a2.446,2.446,0,0,0,0-.7l-.7-19.758v-.525h-4.546a2.451,2.451,0,0,0,0,.525l.7,19.758a2.271,2.271,0,0,0,.175.7Zm8.568-.525a2.27,2.27,0,0,0,0-.524l-.7-19.758v-.525H314.6a2.274,2.274,0,0,0,0,.525l.7,19.758v.524Zm8.568-.524a2.292,2.292,0,0,0,0-.35l-.7-19.758v-.7h-4.546a2.271,2.271,0,0,0,0,.525l.7,19.758v.35Zm8.568-.525a1.248,1.248,0,0,0,0-.175l-.7-19.758a2.275,2.275,0,0,0-.175-.7h-4.546a2.272,2.272,0,0,0,0,.7l.7,19.758h4.721Zm8.568-.525-.7-19.758a2.275,2.275,0,0,0-.175-.7h-4.371a2.272,2.272,0,0,0-.175.7l.7,19.758Z" transform="translate(229.191 189.825)" fill="#8044f2" fill-rule="evenodd"/>
      <path id="Path_39" data-name="Path 39" d="M251.493,239.746l7.519-68.367a12.24,12.24,0,0,0-8.743-13.114l-8.568-2.448s2.1-20.458-13.464-19.583a11.016,11.016,0,0,0-7.344,3.322,10.666,10.666,0,0,0-2.8,4.2s-3.322-12.415-16.786-7.693c0,0-4.721.7-5.246,6.819,0,0-2.273-9.267-13.464-4.9,0,0-4.371,1.574-5.6,9.092,0,0,0-7.169-8.393-6.994-2.8,0-6.644,1.224-7.868,18.359L154.8,236.424Z" transform="translate(115.871 101.041)" fill="#de7861" fill-rule="evenodd"/>
      <path id="Path_40" data-name="Path 40" d="M196.866,178.114c-.175-2.623-.175-6.295,0-10.666.35-10.141,1.4-23.255,1.923-30.249a6.616,6.616,0,0,1,.175-1.4,6.994,6.994,0,0,0-4.546,5.42v1.049c-.525,7.344-1.224,17.135-1.574,25.179-.175,4.371-.175,8.218,0,11.016a9.442,9.442,0,0,1-2.972,5.246,9.092,9.092,0,0,1-6.47,1.574,7.169,7.169,0,0,1-6.469-5.6l2.448-39.167V137.9a13.114,13.114,0,0,0-4.371,7.693v1.4l-2.1,32.7a1.571,1.571,0,0,0,0,.35,18.009,18.009,0,0,1-4.371,2.273,6.645,6.645,0,0,1-4.371.35,7.869,7.869,0,0,1-3.322-2.973,18.01,18.01,0,0,1-3.322-8.393L157,180.737a13.114,13.114,0,0,0,4.721,5.071,10.316,10.316,0,0,0,6.295.874,18.71,18.71,0,0,0,6.295-2.8,10.316,10.316,0,0,0,8.743,5.42,13.114,13.114,0,0,0,9.092-2.448,11.016,11.016,0,0,0,2.1-2.273,10.491,10.491,0,0,0,18.884-.35l.525,1.749-.7.525-3.5,2.973a89.7,89.7,0,0,0-12.589,12.414l-2.273,3.322-3.147-2.448a37.593,37.593,0,0,0-11.89-5.42,1.994,1.994,0,0,0-1.049,3.847,33.4,33.4,0,0,1,10.666,4.9l3.322,2.8-.525,1.224a33.746,33.746,0,0,0-2.448,6.644,15.038,15.038,0,0,0-.35,5.246,8.743,8.743,0,0,0,2.8,5.77c3.5,2.8,8.917,1.224,11.016-2.273s1.049-6.644-.175-9.442a26.054,26.054,0,0,0-4.022-6.295l-1.224-1.4,2.448-3.672A85.329,85.329,0,0,1,211.9,192.8l3.322-2.8.525-.35a10.316,10.316,0,0,0,6.295,2.448,9.967,9.967,0,0,0,10.666-7.519,1.972,1.972,0,0,0-3.847-.874,6.3,6.3,0,0,1-6.644,4.546,6.12,6.12,0,0,1-4.022-1.574c-1.4-1.4-2.1-3.847-1.4-8.043a1.923,1.923,0,0,0-1.574-2.273h-.35a1.923,1.923,0,0,0-3.672.525c-.525,5.6-2.623,8.568-5.246,9.617a7.169,7.169,0,0,1-9.092-5.071,12.759,12.759,0,0,1-.35-2.1,1.927,1.927,0,0,0,0-.525m-.874,33.047v.35a22.033,22.033,0,0,1,3.5,5.42,6.645,6.645,0,0,1,.35,5.945,3.672,3.672,0,0,1-5.246,1.4,4.721,4.721,0,0,1-1.4-3.147,11.191,11.191,0,0,1,.35-3.847,29.374,29.374,0,0,1,2.1-5.77m20.982-69.241a10.666,10.666,0,0,1,4.022-4.546v1.4l-1.049,16.786a1.925,1.925,0,0,1-3.847-.175Z" transform="translate(117.518 101.649)" fill="#8f3536" fill-rule="evenodd"/>
      <path id="Path_41" data-name="Path 41" d="M185.13,158.732c-.175,1.049-2.1,14.513,33.4,22.031a1.972,1.972,0,1,0,.874-3.847c-11.191-2.623-22.731-7.344-26.228-10.491a13.839,13.839,0,0,1-4.2-7.169h0a8.218,8.218,0,0,1,3.672-5.945,23.429,23.429,0,0,1,8.568-3.322,71.337,71.337,0,0,1,16.086-1.224h1.574v-3.847h-1.224a76.06,76.06,0,0,0-17.31,1.4c-7.868,1.749-14.513,5.6-15.212,12.589" transform="translate(138.521 108.442)" fill="#8f3536" fill-rule="evenodd"/>
      <path id="Path_42" data-name="Path 42" d="M347.868,242.146l7.519-68.367a12.24,12.24,0,0,0-8.743-13.114l-8.568-2.448s2.1-20.458-13.464-19.583a11.015,11.015,0,0,0-7.344,3.322,10.666,10.666,0,0,0-2.623,4.2s-3.322-12.414-16.786-7.693c0,0-4.721.7-5.246,6.819,0,0-2.273-9.267-13.464-4.9,0,0-4.371,1.574-5.6,9.092,0,0,0-7.169-8.393-6.994-2.8,0-6.644,1.224-7.868,18.359L251,239.173Z" transform="translate(187.879 102.837)" fill="#ab494a" fill-rule="evenodd"/>
      <path id="Path_43" data-name="Path 43" d="M293.166,180.614c-.175-2.623-.175-6.295,0-10.666.35-10.141,1.4-23.255,1.923-30.249a6.615,6.615,0,0,1,.175-1.4,6.994,6.994,0,0,0-4.546,5.42v1.049c-.525,7.344-1.224,17.136-1.574,25.179-.175,4.371-.175,8.218,0,11.016a9.442,9.442,0,0,1-2.972,5.246,9.093,9.093,0,0,1-6.47,1.574,7.169,7.169,0,0,1-6.47-5.6l2.448-39.167V140.4a13.114,13.114,0,0,0-4.371,7.693v1.4l-2.1,32.7a1.569,1.569,0,0,0,0,.35,18.01,18.01,0,0,1-4.371,2.273,6.644,6.644,0,0,1-4.371.35,7.869,7.869,0,0,1-3.322-2.973,18.011,18.011,0,0,1-3.322-8.393l-.525,9.442a13.114,13.114,0,0,0,4.721,5.071,10.316,10.316,0,0,0,6.295.874,18.71,18.71,0,0,0,6.295-2.8,10.316,10.316,0,0,0,8.743,5.42,13.114,13.114,0,0,0,9.092-2.448,11.015,11.015,0,0,0,2.1-2.273,10.491,10.491,0,0,0,18.884-.35l.525,1.749-.7.525-3.5,2.972a89.522,89.522,0,0,0-12.589,12.415l-2.273,3.322-3.147-2.448a37.593,37.593,0,0,0-11.89-5.42,1.994,1.994,0,0,0-1.049,3.847,33.4,33.4,0,0,1,10.666,4.9l3.322,2.8-.525,1.224a33.577,33.577,0,0,0-2.448,6.644,15.038,15.038,0,0,0-.35,5.246,8.743,8.743,0,0,0,2.8,5.77c3.5,2.8,8.917,1.224,11.016-2.273s1.049-6.644-.175-9.442a25.879,25.879,0,0,0-4.022-6.295l-1.224-1.4,2.448-3.672A85.331,85.331,0,0,1,308.2,195.3l3.322-2.8.525-.35a10.317,10.317,0,0,0,6.295,2.448,10.141,10.141,0,0,0,10.666-7.519,1.972,1.972,0,1,0-3.847-.874,6.3,6.3,0,0,1-6.644,4.546,6.119,6.119,0,0,1-4.021-1.574c-1.4-1.4-2.1-3.847-1.4-8.043a1.923,1.923,0,0,0-1.574-2.273h-.35a1.923,1.923,0,0,0-3.672.525c-.525,5.6-2.623,8.568-5.246,9.617a7.169,7.169,0,0,1-9.092-5.071,12.767,12.767,0,0,1-.35-2.1,1.927,1.927,0,0,0,0-.525m-.874,33.047v.35a22.031,22.031,0,0,1,3.5,5.42,6.644,6.644,0,0,1,.35,5.945,3.672,3.672,0,0,1-5.246,1.4,4.721,4.721,0,0,1-1.4-3.147,11.189,11.189,0,0,1,.35-3.847,29.372,29.372,0,0,1,2.1-5.77m20.982-69.241a10.666,10.666,0,0,1,4.022-4.546v1.4l-1.049,16.786a1.925,1.925,0,1,1-3.847-.175Z" transform="translate(189.6 103.521)" fill="#4b0000" fill-rule="evenodd"/>
      <path id="Path_44" data-name="Path 44" d="M281.43,161.232c-.175,1.049-2.1,14.513,33.4,22.031a1.972,1.972,0,1,0,.874-3.847c-11.19-2.623-22.731-7.344-26.228-10.491a13.839,13.839,0,0,1-4.2-7.169h0a8.218,8.218,0,0,1,3.672-5.945,23.43,23.43,0,0,1,8.568-3.322,71.336,71.336,0,0,1,16.086-1.224h1.574v-3.847h-1.224a76.059,76.059,0,0,0-17.31,1.4c-7.868,1.749-14.338,5.6-15.212,12.589" transform="translate(210.604 110.313)" fill="#4b0000" fill-rule="evenodd"/>
      <path id="Path_45" data-name="Path 45" d="M294.516,258.546l7.519-68.367a12.24,12.24,0,0,0-8.743-13.114l-8.568-2.448s2.1-20.458-13.464-19.583a11.016,11.016,0,0,0-7.344,3.322,10.491,10.491,0,0,0-2.623,4.2s-3.322-12.415-16.786-7.693c0,0-4.721.7-5.246,6.819,0,0-2.273-9.267-13.464-4.9,0,0-4.371,1.574-5.6,9.092,0,0,0-7.169-8.393-6.994-2.8,0-7.519,1.923-9.617,18.01L195.2,255.049Z" transform="translate(146.111 115.113)" fill="#4b0000" fill-rule="evenodd"/>
      <path id="Path_46" data-name="Path 46" d="M239.739,197.014c-.175-2.623-.175-6.295,0-10.666.35-10.141,1.4-23.255,1.923-30.249a6.615,6.615,0,0,1,.175-1.4,6.994,6.994,0,0,0-4.546,5.42v1.049c-.525,7.344-1.224,17.136-1.574,25.179-.175,4.371-.175,8.218,0,11.016a9.442,9.442,0,0,1-2.973,5.246,9.092,9.092,0,0,1-6.47,1.574,7.169,7.169,0,0,1-6.469-5.6l2.448-39.167V156.8a13.114,13.114,0,0,0-4.371,7.694v1.4l-2.1,32.7a1.575,1.575,0,0,0,0,.35,17.837,17.837,0,0,1-4.371,2.273,6.644,6.644,0,0,1-4.371.35,9.617,9.617,0,0,1-4.022-2.973,31.47,31.47,0,0,1-4.721-8.043l-.7,6.994s1.923,5.42,6.644,6.994a12.589,12.589,0,0,0,6.295.874,18.709,18.709,0,0,0,6.295-2.8,10.316,10.316,0,0,0,8.743,5.42,13.114,13.114,0,0,0,9.092-2.448,11.018,11.018,0,0,0,2.1-2.273,10.491,10.491,0,0,0,18.884-.35l.525,1.749-.7.525-3.5,2.972a89.523,89.523,0,0,0-12.589,12.415l-2.273,3.322-3.147-2.448a37.592,37.592,0,0,0-11.89-5.42,1.994,1.994,0,1,0-1.049,3.847,33.4,33.4,0,0,1,10.666,4.9l3.322,2.8-.525,1.224a33.745,33.745,0,0,0-2.448,6.644,15.038,15.038,0,0,0-.525,5.246,8.743,8.743,0,0,0,2.8,5.77c3.5,2.8,8.743,1.224,11.016-2.273s1.049-6.644-.175-9.442a26.052,26.052,0,0,0-4.022-6.295l-1.224-1.4,2.448-3.672a85.328,85.328,0,0,1,11.89-11.89l3.322-2.8.525-.35a10.316,10.316,0,0,0,6.295,2.448,9.967,9.967,0,0,0,10.666-7.519,1.972,1.972,0,1,0-3.847-.874,6.3,6.3,0,0,1-6.644,4.546,6.12,6.12,0,0,1-4.022-1.574c-1.4-1.4-2.1-3.847-1.4-8.043a1.923,1.923,0,0,0-1.574-2.273h-.35a1.923,1.923,0,0,0-3.672.525c-.525,5.6-2.623,8.568-5.246,9.617a7.169,7.169,0,0,1-9.092-5.071,12.934,12.934,0,0,1-.35-2.1,1.749,1.749,0,0,0,0-.525m-.874,33.047v.35a22.032,22.032,0,0,1,3.5,5.42,6.644,6.644,0,0,1,.35,5.945,3.672,3.672,0,0,1-5.246,1.4,4.721,4.721,0,0,1-1.4-3.147,11.191,11.191,0,0,1,.35-3.847,29.549,29.549,0,0,1,2.1-5.77m20.982-69.241a10.665,10.665,0,0,1,4.022-4.546v1.4l.35,15.912a1.925,1.925,0,0,1-3.847-.175Z" transform="translate(147.908 115.796)" fill="#ab494a" fill-rule="evenodd"/>
      <path id="Path_47" data-name="Path 47" d="M227.13,177.632c-.175,1.049-2.1,14.513,33.4,22.031a1.972,1.972,0,0,0,.874-3.847c-11.19-2.623-22.731-7.344-26.228-10.491a13.838,13.838,0,0,1-4.2-7.169h0a8.218,8.218,0,0,1,3.672-5.945,23.431,23.431,0,0,1,8.568-3.322,71.165,71.165,0,0,1,16.086-1.224h1.574v-3.847h-1.224a76.233,76.233,0,0,0-17.31,1.4c-7.868,1.749-14.338,5.6-15.212,12.589" transform="translate(169.959 122.589)" fill="#ab494a" fill-rule="evenodd"/>
      <path id="Path_48" data-name="Path 48" d="M217.6,133.144,226.52,151.5a2.346,2.346,0,1,1-4.2,2.1l-8.917-18.359a2.346,2.346,0,1,1,4.2-2.1m57,1.4-9.267,18.709a2.346,2.346,0,1,1-4.2-2.1l9.267-18.709a2.346,2.346,0,0,1,4.2,2.1m-30.6-7.169.35,21.157a2.362,2.362,0,0,1-4.721.175l-.35-21.157a2.362,2.362,0,1,1,4.721-.175" transform="translate(159.553 93.639)" fill="#76f8b7" fill-rule="evenodd"/>
      <path id="Path_49" data-name="Path 49" d="M298.028,212.616l1.923,18.884a2.375,2.375,0,0,1-4.721.525l-1.923-18.884a2.375,2.375,0,0,1,4.721-.525m-23.78,1.749L273.024,229.4a2.367,2.367,0,0,1-4.721-.35l1.224-15.037a2.367,2.367,0,0,1,4.721.35m48.609-5.246,11.191,15.562a2.378,2.378,0,0,1-3.847,2.8l-11.19-15.562a2.378,2.378,0,1,1,3.847-2.8" transform="translate(200.826 155.797)" fill="#76f8b7" fill-rule="evenodd"/>
      <path id="Path_50" data-name="Path 50" d="M203.783,212.8l-1.224,16.086a2.367,2.367,0,1,1-4.721-.35l1.224-16.086a2.367,2.367,0,1,1,4.721.35m-22.906,0-6.644,15.737a2.354,2.354,0,1,1-4.371-1.749l6.644-15.737a2.354,2.354,0,1,1,4.371,1.749m-18.359-5.945-15.037,13.289a2.352,2.352,0,1,1-3.147-3.5l15.037-13.289a2.352,2.352,0,1,1,3.147,3.5" transform="translate(107.454 151.766)" fill="#76f8b7" fill-rule="evenodd"/>
      <path id="Path_51" data-name="Path 51" d="M389.411,90.544,374.549,58.371a2.273,2.273,0,0,0-4.371.175L358.113,87.921,344.474,68.338a2.273,2.273,0,0,0-4.2,1.049l-4.371,33.746a2.375,2.375,0,1,0,4.721.525l3.672-27.8,12.764,18.01a2.273,2.273,0,0,0,4.022-.525L372.8,65.016l13.638,29.55a2.273,2.273,0,0,0,3.322,1.049l22.556-13.289v27.8a2.273,2.273,0,0,0,2.8,2.273l16.261-3.5-18.709,24.479a2.308,2.308,0,0,0,3.672,2.8l22.381-29.55a2.273,2.273,0,0,0-2.448-3.672l-19.583,4.2v-28.5a2.273,2.273,0,0,0-3.5-2.1Z" transform="translate(251.422 42.518)" fill="#76f8b7" fill-rule="evenodd"/>
    </g>
  </g>
</svg>
